<svg xmlns="http://www.w3.org/2000/svg" viewBox="0 0 280 260">
  <path fill="#245b49" d="M269.6 41.7c-5.8-8.8-15.9-13.1-26.2-11.4L184 40c-3.4-22.7-23.4-40-46.9-40-23.4 0-43.4998 17.3-46.8998 39.9l-59.4-9.7c-10.4-1.6-20.4 2.8-26.19998 11.5-5.8 8.7-5.9 19.6-.4 28.5 0 0 0 .1.1.1L114.8 246.7c4.8 7.7 13.2 12.4 22.3 12.4 9.1 0 17.5-4.6 22.3-12.4L270 70.3c5.6-8.9 5.4-19.9-.4-28.6zM137.1 238.6v2.8-2.8c-2.1 0-3.9-1-5-2.8L21.6002 59.4c-1.3-2.1-1.3-4.4.1-6.4 1.1-1.7 2.9-2.7 4.8-2.7.4 0 .7.1 1.1.1l64.3 10.5c6.4 23.5 26.0998 54.9 45.2998 54.9s38.9-31.4 45.3-54.9l64.3-10.5c2.3-.4 4.5.6 5.9 2.6 1.3 2 1.4 4.4.1 6.4L142.1 235.8c-1.1 1.8-2.9 2.8-5 2.8zm0-218.1c14.9 0 27 11.8 27 26.4 0 19.5-21.7 48.5-27 48.5-5.4 0-27-29-27-48.5 0-14.6 12.1-26.4 27-26.4z" />
</svg>